<svg width="34" height="34" viewBox="0 0 34 34" fill="none" xmlns="http://www.w3.org/2000/svg">
<path d="M26.8333 27C24.9833 27 23.5 28.4833 23.5 30.3333C23.5 31.2174 23.8512 32.0652 24.4763 32.6903C25.1014 33.3155 25.9493 33.6666 26.8333 33.6666C27.7174 33.6666 28.5652 33.3155 29.1904 32.6903C29.8155 32.0652 30.1667 31.2174 30.1667 30.3333C30.1667 29.4493 29.8155 28.6014 29.1904 27.9763C28.5652 27.3512 27.7174 27 26.8333 27ZM0.166664 0.333313V3.66665H3.5L9.5 16.3166L7.23333 20.4C6.98333 20.8666 6.83333 21.4166 6.83333 22C6.83333 22.884 7.18452 23.7319 7.80964 24.357C8.43476 24.9821 9.28261 25.3333 10.1667 25.3333H30.1667V22H10.8667C10.7562 22 10.6502 21.9561 10.572 21.8779C10.4939 21.7998 10.45 21.6938 10.45 21.5833C10.45 21.5 10.4667 21.4333 10.5 21.3833L12 18.6666H24.4167C25.6667 18.6666 26.7667 17.9666 27.3333 16.95L33.3 6.16665C33.4167 5.89998 33.5 5.61665 33.5 5.33331C33.5 4.89129 33.3244 4.46736 33.0118 4.1548C32.6993 3.84224 32.2754 3.66665 31.8333 3.66665H7.18333L5.61666 0.333313M10.1667 27C8.31666 27 6.83333 28.4833 6.83333 30.3333C6.83333 31.2174 7.18452 32.0652 7.80964 32.6903C8.43476 33.3155 9.28261 33.6666 10.1667 33.6666C11.0507 33.6666 11.8986 33.3155 12.5237 32.6903C13.1488 32.0652 13.5 31.2174 13.5 30.3333C13.5 29.4493 13.1488 28.6014 12.5237 27.9763C11.8986 27.3512 11.0507 27 10.1667 27Z" fill="black"/>
</svg>
