<svg width="41" height="40" viewBox="0 0 41 40" fill="none" xmlns="http://www.w3.org/2000/svg">
<path d="M22.5583 0C24.8082 0.00599986 25.9502 0.0179996 26.9362 0.0459989L27.3242 0.0599985C27.7722 0.0759982 28.2142 0.0959976 28.7481 0.119997C30.8761 0.219995 32.3281 0.555987 33.602 1.04998C34.922 1.55796 36.034 2.24595 37.146 3.35592C38.1629 4.35569 38.9498 5.56505 39.4519 6.89984C39.9459 8.17381 40.2819 9.62577 40.3819 11.7557C40.4059 12.2877 40.4259 12.7297 40.4419 13.1797L40.4539 13.5677C40.4839 14.5517 40.4959 15.6936 40.4999 17.9436L40.5019 19.4355V22.0555C40.5068 23.5143 40.4914 24.973 40.4559 26.4314L40.4439 26.8194C40.4279 27.2694 40.4079 27.7114 40.3839 28.2433C40.2839 30.3733 39.9439 31.8233 39.4519 33.0992C38.9513 34.4347 38.1642 35.6444 37.146 36.6431C36.1459 37.6598 34.9366 38.4466 33.602 38.9491C32.3281 39.4431 30.8761 39.7791 28.7481 39.8791C28.2736 39.9014 27.7989 39.9214 27.3242 39.9391L26.9362 39.9511C25.9502 39.9791 24.8082 39.9931 22.5583 39.9971L21.0663 39.9991H18.4484C16.9889 40.0041 15.5295 39.9888 14.0705 39.9531L13.6825 39.9411C13.2077 39.9231 12.7331 39.9024 12.2585 39.8791C10.1306 39.7791 8.67861 39.4431 7.40264 38.9491C6.06801 38.4478 4.85913 37.6608 3.86072 36.6431C2.84284 35.6437 2.05521 34.4343 1.55278 33.0992C1.05879 31.8253 0.722797 30.3733 0.622799 28.2433C0.600517 27.7688 0.580517 27.2941 0.5628 26.8194L0.552801 26.4314C0.515946 24.973 0.499278 23.5143 0.502802 22.0555V17.9436C0.49722 16.4848 0.511888 15.026 0.546801 13.5677L0.560801 13.1797C0.5768 12.7297 0.5968 12.2877 0.620799 11.7557C0.720797 9.62577 1.05679 8.17581 1.55078 6.89984C2.05299 5.56368 2.84219 4.35395 3.86272 3.35592C4.86088 2.33889 6.06896 1.55194 7.40264 1.04998C8.67861 0.555987 10.1286 0.219995 12.2585 0.119997C12.7905 0.0959976 13.2345 0.0759982 13.6825 0.0599985L14.0705 0.0479987C15.5288 0.0124651 16.9876 -0.00286933 18.4464 0.00199981L22.5583 0ZM20.5023 9.99977C17.8502 9.99977 15.3068 11.0533 13.4314 12.9286C11.5561 14.804 10.5026 17.3474 10.5026 19.9995C10.5026 22.6516 11.5561 25.1951 13.4314 27.0704C15.3068 28.9458 17.8502 29.9993 20.5023 29.9993C23.1544 29.9993 25.6979 28.9458 27.5732 27.0704C29.4486 25.1951 30.5021 22.6516 30.5021 19.9995C30.5021 17.3474 29.4486 14.804 27.5732 12.9286C25.6979 11.0533 23.1544 9.99977 20.5023 9.99977ZM20.5023 13.9997C21.2902 13.9995 22.0705 14.1546 22.7985 14.456C23.5264 14.7574 24.1879 15.1992 24.7452 15.7563C25.3024 16.3133 25.7445 16.9747 26.0461 17.7026C26.3477 18.4304 26.5031 19.2106 26.5032 19.9985C26.5033 20.7864 26.3483 21.5667 26.0469 22.2947C25.7455 23.0226 25.3036 23.6841 24.7466 24.2414C24.1895 24.7986 23.5282 25.2407 22.8003 25.5423C22.0724 25.8439 21.2922 25.9993 20.5043 25.9994C18.9131 25.9994 17.387 25.3673 16.2618 24.2421C15.1366 23.1169 14.5045 21.5908 14.5045 19.9995C14.5045 18.4083 15.1366 16.8822 16.2618 15.757C17.387 14.6318 18.9131 13.9997 20.5043 13.9997M31.0041 6.99984C30.3411 6.99984 29.7052 7.26322 29.2364 7.73205C28.7675 8.20088 28.5041 8.83675 28.5041 9.49978C28.5041 10.1628 28.7675 10.7987 29.2364 11.2675C29.7052 11.7363 30.3411 11.9997 31.0041 11.9997C31.6671 11.9997 32.303 11.7363 32.7718 11.2675C33.2406 10.7987 33.504 10.1628 33.504 9.49978C33.504 8.83675 33.2406 8.20088 32.7718 7.73205C32.303 7.26322 31.6671 6.99984 31.0041 6.99984Z" fill="black"/>
</svg>
