<svg width="41" height="40" viewBox="0 0 41 40" fill="none" xmlns="http://www.w3.org/2000/svg">
<rect x="0.499329" width="39.9991" height="39.9991" rx="6" fill="black"/>
<path d="M30.4986 13.9118C29.7625 14.2464 28.969 14.4662 28.1469 14.5714C28.9881 14.0647 29.6382 13.2617 29.9441 12.2961C29.1507 12.7741 28.2711 13.1087 27.3438 13.2999C26.5886 12.4778 25.5274 11.9998 24.3229 11.9998C22.0763 11.9998 20.2407 13.8353 20.2407 16.101C20.2407 16.426 20.279 16.7415 20.3459 17.0379C16.9425 16.8658 13.912 15.231 11.8948 12.755C11.5411 13.3573 11.3404 14.0647 11.3404 14.8104C11.3404 16.2348 12.0574 17.4968 13.1663 18.2138C12.4876 18.2138 11.8566 18.0226 11.3021 17.7358V17.7644C11.3021 19.7529 12.717 21.4164 14.5908 21.7892C13.9893 21.9545 13.3576 21.9774 12.7457 21.8561C13.0053 22.6711 13.5139 23.3842 14.1998 23.8952C14.8857 24.4062 15.7145 24.6894 16.5697 24.705C15.1201 25.8527 13.3231 26.473 11.4742 26.464C11.1492 26.464 10.8241 26.4449 10.4991 26.4067C12.3155 27.573 14.476 28.2518 16.7896 28.2518C24.3229 28.2518 28.4623 21.9995 28.4623 16.579C28.4623 16.3974 28.4623 16.2253 28.4528 16.0436C29.2558 15.47 29.9441 14.7435 30.4986 13.9118Z" fill="white"/>
</svg>
